<svg xmlns="http://www.w3.org/2000/svg" viewBox="0 0 200 200" width="200" height="200">
  <!-- Shadow -->
  <ellipse cx="100" cy="185" rx="55" ry="7" fill="#00000018"/>
  <!-- Paper base (crumpled) -->
  <polygon points="30,50 60,40 100,45 140,38 170,52 165,150 130,160 100,155 70,162 35,148" fill="#FEF9C3"/>
  <!-- Crumple lines -->
  <path d="M45,60 Q70,55 85,65 Q100,75 115,60 Q130,48 155,58" stroke="#FDE68A" stroke-width="2" fill="none"/>
  <path d="M38,90 Q65,80 90,92 Q110,100 135,85 Q155,73 168,90" stroke="#FDE68A" stroke-width="2" fill="none"/>
  <path d="M35,120 Q60,110 85,122 Q105,132 130,118 Q150,106 165,122" stroke="#FDE68A" stroke-width="2" fill="none"/>
  <!-- Grease stains -->
  <ellipse cx="80" cy="85" rx="20" ry="14" fill="#D97706" opacity="0.35"/>
  <ellipse cx="125" cy="95" rx="15" ry="10" fill="#D97706" opacity="0.30"/>
  <ellipse cx="95" cy="130" rx="18" ry="12" fill="#92400E" opacity="0.25"/>
  <ellipse cx="55" cy="110" rx="10" ry="7" fill="#D97706" opacity="0.28"/>
  <ellipse cx="148" cy="118" rx="10" ry="8" fill="#D97706" opacity="0.25"/>
  <!-- Fold mark -->
  <line x1="100" y1="40" x2="100" y2="162" stroke="#FDE68A" stroke-width="1.5" stroke-dasharray="5,4"/>
  <!-- Shine on grease -->
  <ellipse cx="83" cy="80" rx="5" ry="3" fill="white" opacity="0.4" transform="rotate(-20,83,80)"/>
</svg>
