<svg xmlns="http://www.w3.org/2000/svg" viewBox="0 0 200 200" width="200" height="200">
  <!-- Shadow -->
  <ellipse cx="100" cy="186" rx="38" ry="6" fill="#00000020"/>
  <!-- Bottle body -->
  <path d="M72,88 Q68,95 68,105 L68,168 Q68,178 78,180 L122,180 Q132,178 132,168 L132,105 Q132,95 128,88 Z" fill="#A855F7"/>
  <!-- Body shine -->
  <path d="M74,92 Q71,98 71,108 L71,165 Q71,172 78,175" stroke="white" stroke-width="6" fill="none" opacity="0.3" stroke-linecap="round"/>
  <!-- Shoulder / neck -->
  <path d="M80,70 Q72,75 72,88 L128,88 Q128,75 120,70 Z" fill="#9333EA"/>
  <!-- Neck -->
  <rect x="85" y="48" width="30" height="24" rx="6" fill="#9333EA"/>
  <!-- Flip-top cap -->
  <rect x="83" y="36" width="34" height="16" rx="5" fill="#6B21A8"/>
  <!-- Cap hinge -->
  <circle cx="117" cy="44" r="4" fill="#4C1D95"/>
  <!-- Flip nozzle -->
  <rect x="90" y="30" width="18" height="10" rx="3" fill="#7E22CE"/>
  <!-- Label -->
  <rect x="73" y="100" width="54" height="65" rx="4" fill="#F3E8FF"/>
  <rect x="73" y="100" width="54" height="65" rx="4" fill="none" stroke="#DDD6FE" stroke-width="1.5"/>
  <!-- Label text -->
  <text x="100" y="118" font-family="Arial, sans-serif" font-size="9" font-weight="bold" fill="#6B21A8" text-anchor="middle">SHAMPOO</text>
  <!-- Bubble decorations -->
  <circle cx="86" cy="132" r="6" fill="#C4B5FD" opacity="0.7"/>
  <circle cx="100" cy="128" r="8" fill="#C4B5FD" opacity="0.7"/>
  <circle cx="114" cy="134" r="5" fill="#C4B5FD" opacity="0.7"/>
  <circle cx="92" cy="145" r="4" fill="#DDD6FE" opacity="0.7"/>
  <circle cx="108" cy="145" r="5" fill="#DDD6FE" opacity="0.7"/>
  <!-- Bubble shine dots -->
  <circle cx="84" cy="130" r="1.5" fill="white" opacity="0.8"/>
  <circle cx="98" cy="126" r="2" fill="white" opacity="0.8"/>
</svg>
